<svg enable-background="new 0 0 945 495" viewBox="0 0 945 495" xmlns="http://www.w3.org/2000/svg" xmlns:xlink="http://www.w3.org/1999/xlink"><defs><path id="SVGID_1_" d="M0 0H945V495H0Z"/><clipPath id="SVGID_00000028286232735368590340000007268044946443243711_"><use xlink:href="#SVGID_1_"/></clipPath><linearGradient id="lg1"><stop offset=".00127618" stop-color="#bdd4ff"/><stop offset=".9992" stop-color="#edf3ff"/></linearGradient><linearGradient id="SVGID_00000144308738119784329650000001814843741741200532_" gradientUnits="userSpaceOnUse" x1="875.5136" x2="153.9183" xlink:href="#lg1" y1="548.782" y2="9.337"/><linearGradient id="SVGID_00000150794447603918321550000005152085380643377343_" gradientUnits="userSpaceOnUse" x1="256.6918" x2="875.5134" y1="254.3425" y2="254.3425"><stop offset="0" stop-color="#0e1b33"/><stop offset="1" stop-color="#233b67"/></linearGradient><linearGradient id="lg2"><stop offset="0" stop-color="#ffffff"/><stop offset=".1413" stop-color="#ffffff" stop-opacity=".8587"/><stop offset="1" stop-color="#ffffff" stop-opacity="0"/></linearGradient><radialGradient id="SVGID_00000131340770833947717990000003616997752964234675_" cx="729.1619" cy="151.5959" gradientTransform="matrix(.6697 -.7426 .04963381 .044759 233.3204 686.3116)" gradientUnits="userSpaceOnUse" r="40.2846" xlink:href="#lg2"/><radialGradient id="SVGID_00000048461864296062451950000013045989018785791625_" cx="963.8363" cy="1017.2816" gradientTransform="matrix(.4051 -.9143 .06110553 .02707392 207.0095 847.5311)" gradientUnits="userSpaceOnUse" r="40.2846" xlink:href="#lg2"/><radialGradient id="SVGID_00000075135315027075551410000001424644282750691730_" cx="915.3519" cy="1153.4658" gradientTransform="matrix(.3852 -.9228 .06167648 .02574675 201.6743 887.255)" gradientUnits="userSpaceOnUse" r="40.2846" xlink:href="#lg2"/><radialGradient id="SVGID_00000130623800067791805190000007886295504064014509_" cx="852.1005" cy="1225.1337" gradientTransform="matrix(.3852 -.9228 .06167648 .02574675 185.7433 915.6394)" gradientUnits="userSpaceOnUse" r="40.2846" xlink:href="#lg2"/><radialGradient id="SVGID_00000091009660887744381010000001060485645779495851_" cx="794.6348" cy="238.5354" gradientTransform="matrix(.6697 -.7426 .04963381 .044759 250.6312 817.9822)" gradientUnits="userSpaceOnUse" r="40.2846" xlink:href="#lg2"/><radialGradient id="SVGID_00000013189659197947316880000004533328627480829839_" cx="707.4015" cy="335.5167" gradientTransform="matrix(.6697 -.7426 .04963381 .044759 217.0042 845.8403)" gradientUnits="userSpaceOnUse" r="40.2846" xlink:href="#lg2"/><radialGradient id="SVGID_00000020357039493097942380000005417282234469391780_" cx="621.5353" cy="430.5062" gradientTransform="matrix(.6697 -.7426 .04963381 .044759 183.9276 872.811)" gradientUnits="userSpaceOnUse" r="40.2846" xlink:href="#lg2"/><radialGradient id="SVGID_00000020374537753686699010000016431536474333476523_" cx="-2190.8193" cy="4980.0088" gradientTransform="matrix(-.9209 -.3898 .02605264 -.06154789 -1663.7197 -175.0823)" gradientUnits="userSpaceOnUse" r="40.2846" xlink:href="#lg2"/><linearGradient id="SVGID_00000047748889605168696200000014383542886012075944_" gradientUnits="userSpaceOnUse" x1="453.5932" x2="330.9682" y1="-64.7189" y2="329.4329"><stop offset="1" stop-color="#7f7aee"/><stop offset="1" stop-color="#dddcfb"/></linearGradient><linearGradient id="lg3"><stop offset="0" stop-color="#4687ff"/><stop offset="1" stop-color="#77a7ff"/></linearGradient><linearGradient id="SVGID_00000104699067396357986140000009477465632736195471_" gradientUnits="userSpaceOnUse" x1="539.4855" x2="298.1283" xlink:href="#lg3" y1="-31.4785" y2="457.0752"/><linearGradient id="SVGID_00000154384364972412706300000012957182519837031358_" gradientUnits="userSpaceOnUse" x1="471.8685" x2="230.5113" xlink:href="#lg3" y1="-64.8829" y2="423.6707"/><linearGradient id="lg4"><stop offset="0" stop-color="#f64f64"/><stop offset="1" stop-color="#ffe4e8"/></linearGradient><linearGradient id="SVGID_00000074413359492224902120000002411145984084758938_" gradientUnits="userSpaceOnUse" x1="466.9458" x2="72.5246" xlink:href="#lg4" y1="-223.7698" y2="1019.0292"/><linearGradient id="lg5"><stop offset="0" stop-color="#7f7aee"/><stop offset="1" stop-color="#dddcfb"/></linearGradient><linearGradient id="SVGID_00000060017288441592999890000014867982084644895890_" gradientUnits="userSpaceOnUse" x1="502.7982" x2="380.1732" xlink:href="#lg5" y1="-49.4107" y2="344.7412"/><linearGradient id="lg6"><stop offset="0" stop-color="#233b67"/><stop offset="1" stop-color="#305eb2"/></linearGradient><linearGradient id="SVGID_00000137130827086724782460000015801706649866646185_" gradientUnits="userSpaceOnUse" x1="410.497" x2="521.4322" xlink:href="#lg6" y1="116.9141" y2="116.9141"/><linearGradient id="lg7"><stop offset="0" stop-color="#edf3ff"/><stop offset="1" stop-color="#ffffff"/></linearGradient><linearGradient id="SVGID_00000138550784534689580270000013025647416629147060_" gradientUnits="userSpaceOnUse" x1="474.3482" x2="594.5061" xlink:href="#lg7" y1="171.6079" y2="171.6079"/><linearGradient id="SVGID_00000147192966515487097510000000594546501981722761_" gradientUnits="userSpaceOnUse" x1="515.301" x2="626.4407" xlink:href="#lg1" y1="84.929" y2="84.929"/><linearGradient id="SVGID_00000084498273664863406250000005864541436265770132_" gradientUnits="userSpaceOnUse" x1="660.7253" x2="266.3041" xlink:href="#lg4" y1="-162.2709" y2="1080.5281"/><linearGradient id="SVGID_00000118362201096614413110000013312295374746946463_" gradientUnits="userSpaceOnUse" x1="743.0562" x2="913.3687" xlink:href="#lg6" y1="174.6969" y2="389.7773"/><linearGradient id="SVGID_00000092428214977666924140000012722340593331861171_" gradientUnits="userSpaceOnUse" x1="735.8909" x2="906.2035" xlink:href="#lg1" y1="180.3707" y2="395.4511"/><linearGradient id="SVGID_00000101069157689859722740000007544370765831414678_" gradientUnits="userSpaceOnUse" x1="641.3416" x2="811.6541" xlink:href="#lg3" y1="255.2401" y2="470.3205"/><linearGradient id="SVGID_00000134954849612970395840000004394071286320853646_" gradientUnits="userSpaceOnUse" x1="547.1837" x2="717.4963" xlink:href="#lg5" y1="329.7995" y2="544.8799"/><linearGradient id="SVGID_00000160158611967657504110000008921415504915192452_" gradientUnits="userSpaceOnUse" x1="546.6373" x2="716.9498" xlink:href="#lg1" y1="330.2322" y2="545.3126"/><linearGradient id="SVGID_00000143599830368140389910000017374559010468322195_" gradientUnits="userSpaceOnUse" x1="677.7009" x2="777.942" xlink:href="#lg5" y1="19.2262" y2="131.1459"/><linearGradient id="SVGID_00000075877446616130719530000014521918736279982010_" gradientUnits="userSpaceOnUse" x1="620.9349" x2="721.176" xlink:href="#lg6" y1="70.0687" y2="181.9884"/><linearGradient id="SVGID_00000106846286892904206300000004949645973118829700_" gradientUnits="userSpaceOnUse" x1="556.3754" x2="656.6165" xlink:href="#lg3" y1="127.8916" y2="239.8112"/><linearGradient id="SVGID_00000065059443995229458490000015710112370934230169_" gradientUnits="userSpaceOnUse" x1="529.3231" x2="570.1982" xlink:href="#lg5" y1="206.0705" y2="353.9991"/><linearGradient id="SVGID_00000000942260125713442350000008891862529973640374_" gradientUnits="userSpaceOnUse" x1="422.6802" x2="463.5552" xlink:href="#lg1" y1="235.5376" y2="383.4662"/><linearGradient id="SVGID_00000152959941830742095280000014151589387275221890_" gradientUnits="userSpaceOnUse" x1="320.9953" x2="361.8703" xlink:href="#lg6" y1="263.6348" y2="411.5634"/><linearGradient id="SVGID_00000098205049308943949020000002659940210623191999_" gradientUnits="userSpaceOnUse" x1="456.4691" x2="584.9333" xlink:href="#lg4" y1="331.1249" y2="530.6339"/><linearGradient id="SVGID_00000016033247606240721090000017610973371437204666_" gradientUnits="userSpaceOnUse" x1="464.3827" x2="592.847" xlink:href="#lg3" y1="326.0293" y2="525.5383"/><linearGradient id="SVGID_00000091010047138651032490000012214809068703539360_" gradientUnits="userSpaceOnUse" x1="430.2567" x2="558.721" xlink:href="#lg7" y1="348.0031" y2="547.5121"/><linearGradient id="SVGID_00000041271084237230106020000000521279326460137345_" gradientUnits="userSpaceOnUse" x1="399.7286" x2="528.1929" xlink:href="#lg5" y1="367.6602" y2="567.1692"/><linearGradient id="SVGID_00000055703818057023372140000002238145542092973477_" gradientUnits="userSpaceOnUse" x1="625.8447" x2="733.7389" xlink:href="#lg7" y1="287.3954" y2="287.3954"/><linearGradient id="SVGID_00000154390636283534303620000011988264573923116462_" gradientUnits="userSpaceOnUse" x1="422.4134" x2="550.8777" xlink:href="#lg1" y1="353.0535" y2="552.5624"/><linearGradient id="SVGID_00000170990377747796777630000001378512100472036267_" gradientUnits="userSpaceOnUse" x1="393.6138" x2="522.0781" xlink:href="#lg3" y1="371.5976" y2="571.1066"/></defs><path clip-path="url(#SVGID_00000028286232735368590340000007268044946443243711_)" d="M0 0H945V495H0Z" fill="url(#SVGID_00000144308738119784329650000001814843741741200532_)"/><path clip-path="url(#SVGID_00000028286232735368590340000007268044946443243711_)" d="M258.3 291.5c0 0-4-7.7.5-14.9 4.5-7.2 40.4-68.7 40.4-68.7s3.3-3.1 7.5-1.6c4.2 1.6.8-1.2.8-1.2l-1.8-1.5c0 0-3.7-3.4-1-9.2 2.7-5.8 38.8-66.5 38.8-66.5s4.2-5.5 9-5c4.8.5.3-1.8.3-1.8l-.8-.5c0 0-3.2-2.6-.5-7.6 2.7-5 35.8-60.5 35.8-60.5s3.7-5.6 10.5-7.7 66-21.1 66-21.1 8.4-1.9 13.5 2.1 1.9-2.1 1.9-2.1-.2-3.7 3.9-5.2c4-1.5 76.4-25.6 76.4-25.6s10.3-1.6 14.2 3.4c3.9 5 2.9-4.2 2.9-4.2s.3-4.7 8.4-7.4c8.1-2.7 74.5-24.5 74.5-24.5s16.4-3.2 21.1 2.7S729 40.2 729 40.2s2.4 6.6-.6 15.2-18.5 46.3-18.5 46.3-.5 1.3.6 1.5c1.1.2 49 5 49 5s7.7 1.1 14 11c6.3 9.9 45.1 73.9 45.1 73.9s2.7 5.8 1.3 8.4c0 0 4.8-1 9 4.3 4.2 5.3 45.7 72.4 45.7 72.4s3 6.3-1.4 11.8c-4.4 5.4-63.3 73.1-63.3 73.1s-3 2.7-11.6 2.3c0 0 1 8.5-2.9 13-3.9 4.5-66.2 75.4-66.2 75.4s-4.9 2.4-11 1.9c0 0 1.3 8.6-1.6 11.8-2.9 3.2-71.6 79.2-71.6 79.2s-7 4.5-11.8 2c-4.9-2.6-186.7-90.2-186.7-90.2s-5.3-2.4-9.8-7.8c-4.5-5.5-45.2-59.7-45.2-59.7s-2.4-2.9 2.4-6.1c4.8-3.2-1.6-1.6-1.6-1.6s-4 1.8-5.8.2c-1.8-1.6-21.1-25.5-21.1-25.5l-38.4 8.1c0 0-8.1.5-10.5-1.8C314 361.7 258.3 291.5 258.3 291.5z" fill="url(#SVGID_00000150794447603918321550000005152085380643377343_)"/><path clip-path="url(#SVGID_00000028286232735368590340000007268044946443243711_)" d="M726.2 150.9c-15.2 16.4-26.4 30.7-25.2 31.8 1.2 1.1 14.5-11.2 29.7-27.7 15.2-16.4 26.4-30.7 25.2-31.8C754.7 122.1 741.4 134.5 726.2 150.9z" fill="url(#SVGID_00000131340770833947717990000003616997752964234675_)"/><path clip-path="url(#SVGID_00000028286232735368590340000007268044946443243711_)" d="M656.6-5.9c-9.3 20.3-15.6 37.4-14 38.1 1.5.7 10.3-15.2 19.6-35.5 9.3-20.3 15.6-37.4 14-38.1C674.7-42.1 665.9-26.2 656.6-5.9z" fill="url(#SVGID_00000048461864296062451950000013045989018785791625_)"/><path clip-path="url(#SVGID_00000028286232735368590340000007268044946443243711_)" d="M622.4 72.6c-8.8 20.5-14.8 37.7-13.2 38.4 1.6.7 10-15.4 18.8-36 8.8-20.5 14.8-37.7 13.2-38.4C639.7 35.9 631.3 52 622.4 72.6z" fill="url(#SVGID_00000075135315027075551410000001424644282750691730_)"/><path clip-path="url(#SVGID_00000028286232735368590340000007268044946443243711_)" d="M586.5 161.2c-8.8 20.5-14.8 37.7-13.2 38.4 1.6.7 10-15.4 18.8-36 8.8-20.5 14.8-37.7 13.2-38.4C603.8 124.5 595.4 140.6 586.5 161.2z" fill="url(#SVGID_00000130623800067791805190000007886295504064014509_)"/><path clip-path="url(#SVGID_00000028286232735368590340000007268044946443243711_)" d="M791.7 237.8c-15.2 16.4-26.4 30.7-25.2 31.8 1.2 1.1 14.5-11.2 29.7-27.7 15.2-16.4 26.4-30.7 25.2-31.8C820.1 209 806.8 221.4 791.7 237.8z" fill="url(#SVGID_00000091009660887744381010000001060485645779495851_)"/><path clip-path="url(#SVGID_00000028286232735368590340000007268044946443243711_)" d="M704.4 334.8c-15.2 16.4-26.4 30.7-25.2 31.8 1.2 1.1 14.5-11.2 29.7-27.7 15.2-16.4 26.4-30.7 25.2-31.8C732.9 306 719.6 318.4 704.4 334.8z" fill="url(#SVGID_00000013189659197947316880000004533328627480829839_)"/><path clip-path="url(#SVGID_00000028286232735368590340000007268044946443243711_)" d="M618.6 429.8c-15.2 16.4-26.4 30.7-25.2 31.8 1.2 1.1 14.5-11.2 29.7-27.7 15.2-16.4 26.4-30.7 25.2-31.8C647 401 633.7 413.4 618.6 429.8z" fill="url(#SVGID_00000020357039493097942380000005417282234469391780_)"/><path clip-path="url(#SVGID_00000028286232735368590340000007268044946443243711_)" d="M483.8 375.4c20.5 8.9 37.6 14.9 38.3 13.4.7-1.5-15.4-10.1-35.9-19-20.5-8.9-37.6-14.9-38.3-13.4C447.3 358 463.3 366.5 483.8 375.4z" fill="url(#SVGID_00000020374537753686699010000016431536474333476523_)"/><path clip-path="url(#SVGID_00000028286232735368590340000007268044946443243711_)" d="M389.1 55l-27 44.2c0 0-4.1 7 4.9 4.7 9-2.2 59.7-17 59.7-17s5.6-1.6 9.6-6.7c4-5 28.2-49.6 28.2-49.6s3.1-5.3-4.4-3.3c-7.6 2.1-60 18.9-60 18.9S392.8 48.9 389.1 55z" fill="url(#SVGID_00000047748889605168696200000014383542886012075944_)"/><path clip-path="url(#SVGID_00000028286232735368590340000007268044946443243711_)" d="M476.7 28.3l-21 43.8c0 0-4.1 7 4.9 4.7 9-2.2 60.5-17.7 60.5-17.7s5.6-1.6 9.6-6.7c4-5 22.8-49.3 22.8-49.3s3.1-5.3-4.4-3.3c-7.6 2.1-61.5 19.7-61.5 19.7S480.7 21.4 476.7 28.3z" fill="url(#SVGID_00000104699067396357986140000009477465632736195471_)"/><path clip-path="url(#SVGID_00000028286232735368590340000007268044946443243711_)" d="M343.4 131.5l-28.1 49.5c0 0-4.4 7.7 5.1 5.3 9.5-2.4 62-16.6 62-16.6s5.9-1.8 10.1-7.3c4.2-5.6 29.7-55.8 29.7-55.8s3.3-5.9-4.6-3.7c-7.9 2.2-62.6 19-62.6 19S347.7 124 343.4 131.5z" fill="url(#SVGID_00000154384364972412706300000012957182519837031358_)"/><path clip-path="url(#SVGID_00000028286232735368590340000007268044946443243711_)" d="M300.6 212l-31.3 54.8c0 0-4.4 7.7 5.1 5.3 9.5-2.4 62-15.7 62-15.7s5.9-1.8 10.1-7.3c4.2-5.6 31-59 31-59s3.3-5.9-4.6-3.7c-7.9 2.2-60.8 16-60.8 16S304.9 204.7 300.6 212z" fill="url(#SVGID_00000074413359492224902120000002411145984084758938_)"/><path clip-path="url(#SVGID_00000028286232735368590340000007268044946443243711_)" d="M394.6 185.8l-26.9 57c0 0-4.4 7.7 5.1 5.3 9.5-2.4 69.6-17.1 69.6-17.1s5.9-1.8 10.1-7.3c4.2-5.6 28.8-61.7 28.8-61.7s3.3-5.9-4.6-3.7c-7.9 2.2-70.5 17.8-70.5 17.8S398.5 178.4 394.6 185.8z" fill="url(#SVGID_00000060017288441592999890000014867982084644895890_)"/><path clip-path="url(#SVGID_00000028286232735368590340000007268044946443243711_)" d="M438.9 102.7 411.5 155c0 0-4.4 7.7 5.1 5.3 9.5-2.4 66.6-16.4 66.6-16.4s5.9-1.8 10.1-7.3c4.2-5.6 27.4-59.3 27.4-59.3s3.3-5.9-4.6-3.7c-7.9 2.2-65.7 19.5-65.7 19.5S442.8 95.3 438.9 102.7z" fill="url(#SVGID_00000137130827086724782460000015801706649866646185_)"/><path clip-path="url(#SVGID_00000028286232735368590340000007268044946443243711_)" d="M501.8 155.8l-26.4 57.8c0 0-4.4 7.7 5.1 5.3 9.5-2.4 79.1-20.1 79.1-20.1s5.9-1.8 10.1-7.3c4.2-5.6 24.5-63.5 24.5-63.5s2.2-5.6-4.6-3.7c-7.9 2.2-76.2 21.9-76.2 21.9S506.1 147.6 501.8 155.8z" fill="url(#SVGID_00000138550784534689580270000013025647416629147060_)"/><path clip-path="url(#SVGID_00000028286232735368590340000007268044946443243711_)" d="M538.6 73l-22.3 50.6c0 0-4.4 7.7 5.1 5.3 9.5-2.4 70.2-20.1 70.2-20.1s5.9-1.8 10.1-7.3c4.2-5.6 24.4-56.9 24.4-56.9s2.2-5.6-4.6-3.7c-7.9 2.2-71.3 22.5-71.3 22.5S542.9 64.8 538.6 73z" fill="url(#SVGID_00000147192966515487097510000000594546501981722761_)"/><path clip-path="url(#SVGID_00000028286232735368590340000007268044946443243711_)" d="M575.5-3.7l-18.7 43.4c0 0-4.4 7.7 5.1 5.3 9.5-2.4 66.2-20.1 66.2-20.1s5.9-1.8 10.1-7.3c4.2-5.6 21.1-49.1 21.1-49.1s2.2-5.6-4.6-3.7c-7.9 2.2-67.6 21.8-67.6 21.8S579.8-12 575.5-3.7z" fill="url(#SVGID_00000084498273664863406250000005864541436265770132_)"/><path clip-path="url(#SVGID_00000028286232735368590340000007268044946443243711_)" d="M762.3 127.8c0 0 5.5-5.3 9.5.5 3.1 4.5 40.1 64.5 40.1 64.5s3.7 6.2-.2 10.5c-4 4.2-54.9 63.6-54.9 63.6s-3.5 3-6.7-.5c-3.2-3.5-46.5-65.2-46.5-65.2s-3.2-5.7 1-10.2C708.9 186.5 762.3 127.8 762.3 127.8z" fill="url(#SVGID_00000118362201096614413110000013312295374746946463_)"/><path clip-path="url(#SVGID_00000028286232735368590340000007268044946443243711_)" d="M822 216.8c0 0 5.5-5.3 9.5.5 3.1 4.5 38.1 62.3 38.1 62.3s3.7 6.2-.2 10.5c-4 4.2-55.5 64.3-55.5 64.3s-3.5 3-6.7-.5c-3.2-3.5-43.1-64.3-43.1-64.3s-3.2-5.7 1-10.2C769.2 274.8 822 216.8 822 216.8z" fill="url(#SVGID_00000092428214977666924140000012722340593331861171_)"/><path clip-path="url(#SVGID_00000028286232735368590340000007268044946443243711_)" d="M739.3 308.6c0 0 5.3-5.5 9.5.2 3.2 4.3 40.8 59.2 40.8 59.2s4 6.1.1 10.5c-3.8 4.4-57.5 65.4-57.5 65.4s-3.4 3.1-6.8-.3c-3.4-3.4-43.9-59.8-43.9-59.8s-3.4-5.6.6-10.3C686.3 368.9 739.3 308.6 739.3 308.6z" fill="url(#SVGID_00000101069157689859722740000007544370765831414678_)"/><path clip-path="url(#SVGID_00000028286232735368590340000007268044946443243711_)" d="M658.5 397.9c0 0 5.3-5.5 9.5.2 3.2 4.3 43.4 58.4 43.4 58.4s4 6.1.1 10.5c-3.8 4.4-61.1 68.2-61.1 68.2s-3.4 3.1-6.8-.3c-3.4-3.4-47-58.2-47-58.2s-3.4-5.6.6-10.3C601.4 461.7 658.5 397.9 658.5 397.9z" fill="url(#SVGID_00000134954849612970395840000004394071286320853646_)"/><path clip-path="url(#SVGID_00000028286232735368590340000007268044946443243711_)" d="M591.8 314.2c0 0 5.3-5.5 9.5.2 3.2 4.3 46.6 61.8 46.6 61.8s4 6.1.1 10.5c-3.8 4.4-63 68.2-63 68.2s-3.4 3.1-6.8-.3c-3.4-3.4-49.9-62.9-49.9-62.9s-3.4-5.6.6-10.3C533 376.7 591.8 314.2 591.8 314.2z" fill="url(#SVGID_00000160158611967657504110000008921415504915192452_)"/><path clip-path="url(#SVGID_00000028286232735368590340000007268044946443243711_)" d="M676.7-31.1c0 0 2.6-5 5.6-.7 2.2 3.1 43.4 70.2 43.4 70.2s3.2 6.1.8 13.4c-2.4 7.3-20.8 49.2-20.8 49.2s-2.7 3.9-6.5-1.5-43.9-70.6-43.9-70.6-2.4-4.5-.3-10S676.7-31.1 676.7-31.1z" fill="url(#SVGID_00000143599830368140389910000017374559010468322195_)"/><path clip-path="url(#SVGID_00000028286232735368590340000007268044946443243711_)" d="M644.2 44c0 0 2.6-5 5.6-.7 2.2 3.1 47.2 72.1 47.2 72.1s3.2 6.1.8 13.4c-2.4 7.3-22.1 55.6-22.1 55.6s-2.7 3.9-6.5-1.5c-3.7-5.3-47.7-70-47.7-70s-2.4-4.5-.3-10C623.3 97.6 644.2 44 644.2 44z" fill="url(#SVGID_00000075877446616130719530000014521918736279982010_)"/><path clip-path="url(#SVGID_00000028286232735368590340000007268044946443243711_)" d="M608.5 129.8c0 0 2.6-5 5.6-.7 2.2 3.1 48.8 72.1 48.8 72.1s3.2 6.1.8 13.4c-2.4 7.3-26 61.4-26 61.4s-2.7 3.9-6.5-1.5c-3.7-5.3-48.4-70-48.4-70s-2.4-4.5-.3-10C584.6 189.2 608.5 129.8 608.5 129.8z" fill="url(#SVGID_00000106846286892904206300000004949645973118829700_)"/><path clip-path="url(#SVGID_00000028286232735368590340000007268044946443243711_)" d="M475.7 242.2c0 0-4.3-6.4 3-8.3 5.8-1.4 77.7-19.8 77.7-19.8s7.1-2 9.3 1.2c1.9 2.7 48 69.4 48 69.4s7.6 10.2-1 12.3c-7.5 1.8-74 16.1-74 16.1s-7.9 2.1-11-1.7C525.1 308.1 475.7 242.2 475.7 242.2z" fill="url(#SVGID_00000065059443995229458490000015710112370934230169_)"/><path clip-path="url(#SVGID_00000028286232735368590340000007268044946443243711_)" d="M370.6 269.8c0 0-4.1-6 2.9-7.7 5.5-1.3 72.2-16.8 72.2-16.8s6.7-1.8 8.8 1.1c1.8 2.5 49.8 64.5 49.8 64.5s7.2 9.5-1 11.5c-7.1 1.7-69.7 15.3-69.7 15.3s-7.5 2-10.4-1.6C420.6 333 370.6 269.8 370.6 269.8z" fill="url(#SVGID_00000000942260125713442350000008891862529973640374_)"/><path clip-path="url(#SVGID_00000028286232735368590340000007268044946443243711_)" d="M270.2 293.1c0 0-4.1-6 2.9-7.7 5.5-1.3 67-17.1 67-17.1s6.7-1.8 8.8 1.1c1.8 2.5 49.7 65.2 49.7 65.2s7.2 9.5-1 11.5c-7.1 1.7-64.8 14.6-64.8 14.6s-7.5 2-10.4-1.6C319.9 355.9 270.2 293.1 270.2 293.1z" fill="url(#SVGID_00000152959941830742095280000014151589387275221890_)"/><path clip-path="url(#SVGID_00000028286232735368590340000007268044946443243711_)" d="M461.5 369.6l43 18.3c0 0 6 2.7 8.8 6.6 2.9 3.9 48.9 61.5 48.9 61.5s5.7 7.5-2.5 3.9c-6.7-3-48.7-23-48.7-23s-3.7-1.4-6.8-5.3c-3.1-3.9-46.5-58.8-46.5-58.8S453.2 365.8 461.5 369.6z" fill="url(#SVGID_00000098205049308943949020000002659940210623191999_)"/><path clip-path="url(#SVGID_00000028286232735368590340000007268044946443243711_)" d="M529.4 457.7l43 18.3c0 0 6 2.7 8.8 6.6 2.9 3.9 44.8 55 44.8 55s5.7 7.5-2.5 3.9c-6.7-3-50.1-23.8-50.1-23.8s-3.7-1.4-6.8-5.3c-3.1-3.9-41-51.6-41-51.6S521.2 454 529.4 457.7z" fill="url(#SVGID_00000016033247606240721090000017610973371437204666_)"/><path clip-path="url(#SVGID_00000028286232735368590340000007268044946443243711_)" d="M462.4 424l43 21.7c0 0 6 2.7 8.8 6.6 2.9 3.9 37.4 49.5 37.4 49.5s5.7 7.5-2.5 3.9c-6.7-3-42.9-20.5-42.9-20.5s-3.7-1.4-6.8-5.3c-3.1-3.9-40.8-52.7-40.8-52.7S454.2 420.3 462.4 424z" fill="url(#SVGID_00000091010047138651032490000012214809068703539360_)"/><path clip-path="url(#SVGID_00000028286232735368590340000007268044946443243711_)" d="M404.1 396.8l35.7 17.5c0 0 6 2.7 8.8 6.6 2.9 3.9 36.8 48.8 36.8 48.8s5.7 7.5-2.5 3.9c-6.7-3-35.9-17.1-35.9-17.1s-3.7-1.4-6.8-5.3c-3.1-3.9-39.9-51.3-39.9-51.3S395.9 393.1 404.1 396.8z" fill="url(#SVGID_00000041271084237230106020000000521279326460137345_)"/><path clip-path="url(#SVGID_00000028286232735368590340000007268044946443243711_)" d="M625.8 305.6l37.7 51.5c0 0 4.9 6.1 11-.6 5.4-5.9 57.1-64.1 57.1-64.1s4.8-5.3 0-12.1c-4.8-6.8-41.9-61.6-41.9-61.6s-5.4-6.8-11-1.7c-4.5 4.2-16.6 16-16.6 16s-1.4 2-2 3.7c-.6 1.7-15.8 42.2-15.8 42.2S639.1 295.8 625.8 305.6z" fill="url(#SVGID_00000055703818057023372140000002238145542092973477_)"/><path clip-path="url(#SVGID_00000028286232735368590340000007268044946443243711_)" d="M435.8 398.2c0 0 3.9 5.4 10.4 8.7 6.5 3.3 43.6 20.9 43.6 20.9s7.7 3.3 1.9-3.8c-5.9-7.1-46.1-58.1-46.1-58.1s-3.5-5-7.6-6.8c-4.1-1.8-23.5-9.8-23.5-9.8s-3.3-1.2-7.3-.4-7.6 2-7.6 2-1.8 1-1 1.9C399.3 353.7 435.8 398.2 435.8 398.2z" fill="url(#SVGID_00000154390636283534303620000011988264573923116462_)"/><path clip-path="url(#SVGID_00000028286232735368590340000007268044946443243711_)" d="M384.2 378.8c0 0 3.7 4.2 8.1 6.2 4.4 2 29.1 12.6 29.1 12.6s9.1 2.9 4.1-3.2-31.6-39.8-31.6-39.8-2.2-2.4-4.1-2c-1.9.4-20.5 4.2-20.5 4.2s-1.8.9-1.1 1.9C368.7 359.7 384.2 378.8 384.2 378.8z" fill="url(#SVGID_00000170990377747796777630000001378512100472036267_)"/><g fill="#ffffff"><path clip-path="url(#SVGID_00000028286232735368590340000007268044946443243711_)" d="M397.1 77.3 395.6 80.7 426.5 63 428.5 59.9 409.1 57.4 407.7 60.3 423.8 62.4Z"/><path clip-path="url(#SVGID_00000028286232735368590340000007268044946443243711_)" d="M525.5 26.3c-2.5-2.1-8.1-1-13.3.1-5.2 1-9.5 3.2-12.5 4.6-3.7 1.7-8.8 6.2-9.8 7.7-1 1.5-3.3 5.1-.2 7.6 3.1 2.5 14.5-.5 22.3-3.5 7.8-3.1 11.4-7.5 12.7-9.2C526.1 31.8 528 28.4 525.5 26.3zM519.6 35c-6 4.8-16.8 7.4-19.9 8-3 .5-7.9 1.6-7.1-3.1s15.1-8.9 15.1-8.9 2.6-.8 7.7-1.7C521.9 28 525.6 30.2 519.6 35z"/><path clip-path="url(#SVGID_00000028286232735368590340000007268044946443243711_)" d="M623.6-7.6 624.5-10.7 592.6 8.2 591.4 10.9 615.2 12 616.6 8.9 596.2 8.2Z"/><path clip-path="url(#SVGID_00000028286232735368590340000007268044946443243711_)" d="M548.6 84.2 586.9 85.1 585.9 88.3 547.6 87.6Z"/><path clip-path="url(#SVGID_00000028286232735368590340000007268044946443243711_)" d="M452.7 125.5 451.8 121.2 485 112.9 486.7 108.6 449.4 118.2 447.7 121.6 448.7 127.3Z"/><path clip-path="url(#SVGID_00000028286232735368590340000007268044946443243711_)" d="M386.7 134.9c-1-1.8-4.5-1.8-10-.8s-9.9 2.6-12.9 4.2c-2.5 1.3-7.3 4.4-9.4 6.4-2.1 2-7.6 8.1-4.2 10.8 3.3 2.7 9.1.8 15.3-.7 6.1-1.5 13.1-5.1 18-10.5C386.7 140.7 387.7 136.7 386.7 134.9zM373.4 148.6c-7.4 3-10 3.7-16.3 4-6.3.3-3.5-5.5 2.8-9.1 0 0 6.1-3.3 10.9-4.7 4.8-1.3 11.8-2.1 12-.1C383.1 141.8 378.8 146.5 373.4 148.6z"/><path clip-path="url(#SVGID_00000028286232735368590340000007268044946443243711_)" d="M339.8 216.6 341.2 212.8 310.6 230.7 308.9 233.5 327.6 239.2 329.4 235.3 313.3 231.4Z"/><path clip-path="url(#SVGID_00000028286232735368590340000007268044946443243711_)" d="M417.9 196.2 419.5 192.4 441.2 197.3 439.9 200.4 407.5 219.6 408.6 215.8 436.6 200.1Z"/><path clip-path="url(#SVGID_00000028286232735368590340000007268044946443243711_)" d="M677.7 25.8 680.3 30 694.5 23.5 694.5 52.8 696.8 56.5 697.3 22 695.2 18.8Z"/><path clip-path="url(#SVGID_00000028286232735368590340000007268044946443243711_)" d="M646.9 107.9 646.6 95.6 648 92.2 673.9 130.6 672.2 134.7 649.7 101.4 649.7 110.4Z"/><path clip-path="url(#SVGID_00000028286232735368590340000007268044946443243711_)" d="M637.4 208.6c-1-3.8-11.1-22.6-17-25.1-1.9-.8-4.8-2.1-7.1-.8-2.3 1.3-3.4 5.3-3.1 11.3.3 6 4.1 13.7 6.3 17.9 2.2 4.2 9.6 15.1 15.1 16.3 5.5 1.3 5.9-2.5 7-5.5C639.7 219.9 638.4 212.4 637.4 208.6zM635.1 220.6c-1.9 4.4-6 .9-9.7-3.5-3.7-4.4-9.1-12.8-10.2-16.4-1.2-3.6-2.5-7.7-1.7-10.4.8-2.7 4-5.7 10 2.5 0 0 6.3 8 8.4 12.4C634 209.5 637 216.2 635.1 220.6z"/><path clip-path="url(#SVGID_00000028286232735368590340000007268044946443243711_)" d="M521.9 252.5 524.8 256.6 558.3 261.6 541.2 279.4 543.9 283.3 564.4 262.5 562 258.8Z"/><path clip-path="url(#SVGID_00000028286232735368590340000007268044946443243711_)" d="M426.6 270.2 431.1 269.1 443 312.2 439.1 313.2Z"/><path clip-path="url(#SVGID_00000028286232735368590340000007268044946443243711_)" d="M317.9 304.2 321.7 307.8 325.6 302.6 348.6 334.4 353.7 333.4 327 296.6 322.9 297.6Z"/><path clip-path="url(#SVGID_00000028286232735368590340000007268044946443243711_)" d="M393.4 367.1c-2.7-3.5-12.2-12.5-12.2-12.5l-5.6.7c0 0 1.1 2.2 2.5 4.6 1.3 2.3 13 15.7 16.6 17.5 3.6 1.7 5 1.6 5-.1S396.1 370.6 393.4 367.1zM395.4 376.1c-2.3-.5-5.3-4.3-7.4-6.3-2.1-2-7.8-9.4-9.2-12.2-1.4-2.9 1-1.9 1-1.9s3.9 3.1 7.1 6.2c3.2 3.1 7.5 9.4 8.3 10.7C396 373.9 397.7 376.6 395.4 376.1z"/><path clip-path="url(#SVGID_00000028286232735368590340000007268044946443243711_)" d="M429.6 367.3 431.8 367.7 446.8 396.7 444.7 396.3Z"/><path clip-path="url(#SVGID_00000028286232735368590340000007268044946443243711_)" d="M508.6 406.3 506.1 403 496.7 406.3 499.1 409.2 526.4 429 524.2 425.3 500.4 408.8Z"/><path clip-path="url(#SVGID_00000028286232735368590340000007268044946443243711_)" d="M428.8 420.4 430.6 423.5 450.6 437.9 442.8 440.2 445 443.4 454.3 440.7 451.7 437.3Z"/><path clip-path="url(#SVGID_00000028286232735368590340000007268044946443243711_)" d="M585.9 505.3c-2.2-3.1-6.4-8.8-9.7-12.2-3.3-3.3-8.6-7.9-11.3-9.3-2.7-1.4-5-2.1-5.9-1.3-.9.8 1.4 5.8 3.8 9 0 0 7.7 10.5 10.3 12.6 2.5 2.1 8.2 7.1 11.1 8.3 2.9 1.1 3.7 1.6 4.7.8C589.8 512.4 588.1 508.4 585.9 505.3zM584.8 509.6c-.4 1.1-3.5-.4-5.9-2.4-2.4-2-7.6-7.7-9.9-10.6-2.3-2.9-5.2-6.9-5.7-8.9-.5-2-.5-2.6.6-2.4 1 .2 6.8 3.7 9.7 7.6 0 0 7.3 8.7 9 11.6C584.3 507.5 585.2 508.4 584.8 509.6z"/><path clip-path="url(#SVGID_00000028286232735368590340000007268044946443243711_)" d="M635.8 462.2 638.3 465.8 665.1 453.9 653.3 485.7 656.1 489.2 669.9 451.2 667.5 448.6Z"/><path clip-path="url(#SVGID_00000028286232735368590340000007268044946443243711_)" d="M576.3 360.1 579.9 356.1 595 409.6 592 413.6Z"/><path clip-path="url(#SVGID_00000028286232735368590340000007268044946443243711_)" d="M808.3 260.3 811.4 257.1 823.6 308.8 820.4 312.2Z"/><path clip-path="url(#SVGID_00000028286232735368590340000007268044946443243711_)" d="M743.7 190.1 747.2 193 750.3 183.9 770.8 214.9 774.8 210.6 751.5 175.1 747.9 178.7Z"/><path clip-path="url(#SVGID_00000028286232735368590340000007268044946443243711_)" d="M750.7 370.7c-2.3-5-7.7-12.7-13.9-14.5-6.2-1.8-10.9 3.9-10.9 3.9s-3.8 5.4-4.3 10.3c-.5 4.9 3.1 13.3 5.3 17.6 2.3 4.3 9.6 10.4 14.2 10.2 4.6-.2 7.6-2.7 10.9-8.5C755.3 383.9 752.9 375.7 750.7 370.7zM746.5 391.1c-3.7 2.4-5.8 1.4-9.3-1-3.6-2.5-7.9-9.9-9.1-12.4-1.2-2.5-3.5-9.8.6-14.3 4.1-4.6 10.7.1 14.6 5.9 3.9 5.6 5.2 8.9 6 14.4C749.9 387.8 748.1 390 746.5 391.1z"/></g><path clip-path="url(#SVGID_00000028286232735368590340000007268044946443243711_)" d="M0 0H945V495H0Z" fill="none"/></svg>